<svg width="19" height="17" viewBox="0 0 19 17" fill="none" xmlns="http://www.w3.org/2000/svg">
<path d="M13.8136 0.00430071C13.0346 0.0431422 12.2618 0.34698 11.6207 0.988116L0.823481 11.7854C0.170743 12.4381 -0.0675184 13.246 0.0160916 13.9986C0.0997437 14.7512 0.480718 15.4482 1.01626 15.9837C1.55172 16.5193 2.24876 16.9002 3.00133 16.9839C3.75399 17.0676 4.56184 16.8292 5.21454 16.1766L14.4694 6.92186C15.352 6.0391 15.2868 4.89067 14.6621 4.26593C14.0375 3.64127 12.8889 3.57599 12.0062 4.45871L5.83646 10.6284L6.3715 11.1635L12.5414 4.9937C13.2011 4.33395 13.7879 4.46152 14.1272 4.80084C14.4665 5.1402 14.5941 5.72698 13.9343 6.38674L4.67963 15.6414C4.17553 16.1455 3.63377 16.2929 3.08499 16.2319C2.53616 16.171 1.97985 15.8771 1.5513 15.4487C1.12278 15.0201 0.82903 14.4637 0.768077 13.915C0.707125 13.3661 0.85442 12.8244 1.35852 12.3203L12.1557 1.52315C12.8434 0.835524 13.6343 0.657081 14.4643 0.797188C15.2943 0.937336 16.151 1.42605 16.8265 2.10157C17.502 2.77701 17.9907 3.63379 18.1309 4.46379C18.271 5.29384 18.0925 6.08471 17.4049 6.77242L8.15022 16.0271L8.68517 16.5621L17.9399 7.30733C18.7948 6.45253 19.0501 5.36358 18.8769 4.33781C18.7038 3.31205 18.1321 2.3371 17.3615 1.56653C16.591 0.795926 15.6161 0.224318 14.5903 0.0511291C14.3339 0.00783185 14.0734 -0.00864644 13.8137 0.00430071H13.8136Z" fill="#2A2C2A"/>
</svg>
