<svg width="24" height="24" viewBox="0 0 24 24" fill="none" xmlns="http://www.w3.org/2000/svg">
<g clip-path="url(#clip0_302_36)">
<g clip-path="url(#clip1_302_36)">
<path fill-rule="evenodd" clip-rule="evenodd" d="M2.54999 14.9998C2.54999 14.199 3.19917 13.5498 3.99999 13.5498H4.99999C5.8008 13.5498 6.44999 14.199 6.44999 14.9998V18.9998C6.44999 19.8006 5.8008 20.4498 4.99999 20.4498H3.99999C3.19917 20.4498 2.54999 19.8006 2.54999 18.9998V14.9998ZM3.99999 14.4498C3.69623 14.4498 3.44999 14.696 3.44999 14.9998V18.9998C3.44999 19.3036 3.69623 19.5498 3.99999 19.5498H4.99999C5.30374 19.5498 5.54999 19.3036 5.54999 18.9998V14.9998C5.54999 14.696 5.30374 14.4498 4.99999 14.4498H3.99999Z" fill="#2A2C2A"/>
<path fill-rule="evenodd" clip-rule="evenodd" d="M8.54999 10.9998C8.54999 10.199 9.19917 9.5498 9.99999 9.5498H12C12.8008 9.5498 13.45 10.199 13.45 10.9998V18.9998C13.45 19.8006 12.8008 20.4498 12 20.4498H9.99999C9.19918 20.4498 8.54999 19.8006 8.54999 18.9998V10.9998ZM9.99999 10.4498C9.69623 10.4498 9.44999 10.696 9.44999 10.9998V18.9998C9.44999 19.3036 9.69623 19.5498 9.99999 19.5498H12C12.3037 19.5498 12.55 19.3036 12.55 18.9998V10.9998C12.55 10.696 12.3037 10.4498 12 10.4498H9.99999Z" fill="#2A2C2A"/>
<path fill-rule="evenodd" clip-rule="evenodd" d="M15.55 4.9998C15.55 4.19899 16.1992 3.5498 17 3.5498H19C19.8008 3.5498 20.45 4.19899 20.45 4.9998V18.9998C20.45 19.8006 19.8008 20.4498 19 20.4498H17C16.1992 20.4498 15.55 19.8006 15.55 18.9998V4.9998ZM17 4.4498C16.6962 4.4498 16.45 4.69605 16.45 4.9998V18.9998C16.45 19.3036 16.6962 19.5498 17 19.5498H19C19.3037 19.5498 19.55 19.3036 19.55 18.9998V4.9998C19.55 4.69605 19.3037 4.4498 19 4.4498H17Z" fill="#2A2C2A"/>
</g>
</g>
<defs>
<clipPath id="clip0_302_36">
<rect width="24" height="24" fill="white"/>
</clipPath>
<clipPath id="clip1_302_36">
<rect width="24" height="24" fill="white"/>
</clipPath>
</defs>
</svg>
