<svg width="30" height="30" viewBox="0 0 30 30" fill="none" xmlns="http://www.w3.org/2000/svg">
<path fill-rule="evenodd" clip-rule="evenodd" d="M5.00004 15.4997C5.00001 15.4999 5 15.5 5 15.5C5 15.5 5.00001 15.5001 5.00004 15.5003C5.00082 15.5073 5.0147 15.6317 5.15376 15.8987C5.28733 16.1552 5.49884 16.4719 5.79165 16.8326C6.3761 17.5525 7.22737 18.3775 8.25112 19.1578C10.3271 20.7402 12.9263 22 15.25 22C17.5737 22 20.1729 20.7402 22.2489 19.1578C23.2726 18.3775 24.1239 17.5525 24.7083 16.8326C25.0012 16.4719 25.2127 16.1552 25.3462 15.8987C25.4853 15.6317 25.4992 15.5073 25.5 15.5003C25.5 15.5001 25.5 15.5 25.5 15.5C25.5 15.5 25.5 15.4999 25.5 15.4997C25.4992 15.4927 25.4853 15.3683 25.3462 15.1013C25.2127 14.8448 25.0012 14.5281 24.7083 14.1674C24.1239 13.4475 23.2726 12.6225 22.2489 11.8422C20.1729 10.2598 17.5737 9 15.25 9C12.9263 9 10.3271 10.2598 8.25112 11.8422C7.22737 12.6225 6.3761 13.4475 5.79165 14.1674C5.49884 14.5281 5.28733 14.8448 5.15376 15.1013C5.0147 15.3683 5.00082 15.4927 5.00004 15.4997ZM7.03873 10.2516C9.26767 8.55265 12.2935 7 15.25 7C18.2065 7 21.2323 8.55265 23.4613 10.2516C24.59 11.1119 25.5612 12.0447 26.2611 12.9068C26.6104 13.3372 26.9066 13.7675 27.1201 14.1775C27.3233 14.5676 27.5 15.03 27.5 15.5C27.5 15.97 27.3233 16.4324 27.1201 16.8225C26.9066 17.2325 26.6104 17.6628 26.2611 18.0932C25.5612 18.9553 24.59 19.8881 23.4613 20.7484C21.2323 22.4473 18.2065 24 15.25 24C12.2935 24 9.26767 22.4473 7.03873 20.7484C5.91 19.8881 4.93881 18.9553 4.23892 18.0932C3.88955 17.6628 3.59343 17.2325 3.37989 16.8225C3.17674 16.4324 3 15.97 3 15.5C3 15.03 3.17674 14.5676 3.37989 14.1775C3.59343 13.7675 3.88955 13.3372 4.23892 12.9068C4.93881 12.0447 5.91 11.1119 7.03873 10.2516Z" fill="#2A2C2A"/>
<path fill-rule="evenodd" clip-rule="evenodd" d="M15.25 17.25C16.2165 17.25 17 16.4665 17 15.5C17 14.5335 16.2165 13.75 15.25 13.75C14.2835 13.75 13.5 14.5335 13.5 15.5C13.5 16.4665 14.2835 17.25 15.25 17.25ZM15.25 19.25C17.3211 19.25 19 17.5711 19 15.5C19 13.4289 17.3211 11.75 15.25 11.75C13.1789 11.75 11.5 13.4289 11.5 15.5C11.5 17.5711 13.1789 19.25 15.25 19.25Z" fill="#2A2C2A"/>
</svg>
