<svg width="24" height="24" viewBox="0 0 24 24" fill="none" xmlns="http://www.w3.org/2000/svg">
<path d="M20.25 4.875H16.125V3.75C16.1225 3.25348 15.9242 2.778 15.5731 2.4269C15.222 2.0758 14.7465 1.87746 14.25 1.875H9.75C9.25348 1.87746 8.778 2.0758 8.4269 2.4269C8.0758 2.778 7.87746 3.25348 7.875 3.75V4.875H3.75C3.65054 4.875 3.55516 4.91451 3.48484 4.98484C3.41451 5.05516 3.375 5.15054 3.375 5.25C3.375 5.34946 3.41451 5.44484 3.48484 5.51516C3.55516 5.58549 3.65054 5.625 3.75 5.625H4.875V19.5C4.875 19.7984 4.99353 20.0845 5.2045 20.2955C5.41548 20.5065 5.70163 20.625 6 20.625H18C18.2984 20.625 18.5845 20.5065 18.7955 20.2955C19.0065 20.0845 19.125 19.7984 19.125 19.5V5.625H20.25C20.3495 5.625 20.4448 5.58549 20.5152 5.51516C20.5855 5.44484 20.625 5.34946 20.625 5.25C20.625 5.15054 20.5855 5.05516 20.5152 4.98484C20.4448 4.91451 20.3495 4.875 20.25 4.875ZM8.625 3.75C8.625 3.45163 8.74353 3.16548 8.9545 2.9545C9.16548 2.74353 9.45163 2.625 9.75 2.625H14.25C14.5484 2.625 14.8345 2.74353 15.0455 2.9545C15.2565 3.16548 15.375 3.45163 15.375 3.75V4.875H8.625V3.75ZM18.375 19.5C18.375 19.5995 18.3355 19.6948 18.2652 19.7652C18.1948 19.8355 18.0995 19.875 18 19.875H6C5.90054 19.875 5.80516 19.8355 5.73484 19.7652C5.66451 19.6948 5.625 19.5995 5.625 19.5V5.625H18.375V19.5ZM10.125 9.75V15.75C10.125 15.8495 10.0855 15.9448 10.0152 16.0152C9.94484 16.0855 9.84946 16.125 9.75 16.125C9.65054 16.125 9.55516 16.0855 9.48483 16.0152C9.41451 15.9448 9.375 15.8495 9.375 15.75V9.75C9.375 9.65054 9.41451 9.55516 9.48483 9.48483C9.55516 9.41451 9.65054 9.375 9.75 9.375C9.84946 9.375 9.94484 9.41451 10.0152 9.48483C10.0855 9.55516 10.125 9.65054 10.125 9.75ZM14.625 9.75V15.75C14.625 15.8495 14.5855 15.9448 14.5152 16.0152C14.4448 16.0855 14.3495 16.125 14.25 16.125C14.1505 16.125 14.0552 16.0855 13.9848 16.0152C13.9145 15.9448 13.875 15.8495 13.875 15.75V9.75C13.875 9.65054 13.9145 9.55516 13.9848 9.48483C14.0552 9.41451 14.1505 9.375 14.25 9.375C14.3495 9.375 14.4448 9.41451 14.5152 9.48483C14.5855 9.55516 14.625 9.65054 14.625 9.75Z" fill="#FC5B5B"/>
<path fill-rule="evenodd" clip-rule="evenodd" d="M9.74817 1.5254L9.7499 1.52539L14.2516 1.52539C14.8404 1.52832 15.4042 1.76349 15.8205 2.1798C16.2368 2.59612 16.472 3.15991 16.4749 3.74866L16.4749 3.75039L16.4749 4.52539H20.2499C20.4422 4.52539 20.6266 4.60178 20.7626 4.73774C20.8985 4.87371 20.9749 5.05811 20.9749 5.25039C20.9749 5.44268 20.8985 5.62708 20.7626 5.76305C20.6266 5.89901 20.4422 5.97539 20.2499 5.97539H19.4749V19.5004C19.4749 19.8916 19.3195 20.2668 19.0429 20.5434C18.7663 20.82 18.3911 20.9754 17.9999 20.9754H5.9999C5.60871 20.9754 5.23354 20.82 4.95692 20.5434C4.6803 20.2668 4.5249 19.8916 4.5249 19.5004V5.97539H3.7499C3.55762 5.97539 3.37321 5.89901 3.23725 5.76305C3.10129 5.62708 3.0249 5.44268 3.0249 5.25039C3.0249 5.05811 3.10129 4.87371 3.23725 4.73774C3.37321 4.60178 3.55762 4.52539 3.7499 4.52539H7.5249V3.74866C7.52782 3.15991 7.763 2.59612 8.17931 2.1798C8.59562 1.76349 9.15942 1.52832 9.74817 1.5254ZM9.75081 2.22539C9.34681 2.22762 8.95998 2.38909 8.67429 2.67478C8.3886 2.96047 8.22712 3.34731 8.2249 3.75131V5.22539H3.7499C3.74327 5.22539 3.73691 5.22803 3.73222 5.23272C3.72754 5.23741 3.7249 5.24376 3.7249 5.25039C3.7249 5.25703 3.72754 5.26338 3.73222 5.26807C3.73691 5.27276 3.74327 5.27539 3.7499 5.27539H5.2249V19.5004C5.2249 19.7059 5.30655 19.9031 5.45189 20.0484C5.59724 20.1937 5.79436 20.2754 5.9999 20.2754H17.9999C18.2054 20.2754 18.4026 20.1937 18.5479 20.0484C18.6933 19.9031 18.7749 19.7059 18.7749 19.5004V5.27539H20.2499C20.2565 5.27539 20.2629 5.27276 20.2676 5.26807C20.2723 5.26338 20.2749 5.25703 20.2749 5.25039C20.2749 5.24376 20.2723 5.23741 20.2676 5.23272C20.2629 5.22803 20.2565 5.22539 20.2499 5.22539H15.7749V3.75122C15.7727 3.34725 15.6112 2.96045 15.3255 2.67478C15.0398 2.38909 14.653 2.22762 14.249 2.22539H9.75081ZM9.7499 2.97539C9.54436 2.97539 9.34724 3.05705 9.20189 3.20239C9.05655 3.34773 8.9749 3.54485 8.9749 3.75039V4.52539H15.0249V3.75039C15.0249 3.54485 14.9433 3.34773 14.7979 3.20239C14.6526 3.05705 14.4554 2.97539 14.2499 2.97539H9.7499ZM8.70692 2.70741C8.98354 2.4308 9.35871 2.27539 9.7499 2.27539H14.2499C14.6411 2.27539 15.0163 2.4308 15.2929 2.70741C15.5695 2.98403 15.7249 3.3592 15.7249 3.75039V5.22539H8.2749V3.75039C8.2749 3.3592 8.4303 2.98403 8.70692 2.70741ZM5.2749 5.27539H18.7249V19.5004C18.7249 19.6927 18.6485 19.8771 18.5126 20.013C18.3766 20.149 18.1922 20.2254 17.9999 20.2254H5.9999C5.80762 20.2254 5.62321 20.149 5.48725 20.013C5.35129 19.8771 5.2749 19.6927 5.2749 19.5004V5.27539ZM5.9749 5.97539V19.5004C5.9749 19.507 5.97754 19.5134 5.98222 19.5181C5.98691 19.5228 5.99327 19.5254 5.9999 19.5254H17.9999C18.0065 19.5254 18.0129 19.5228 18.0176 19.5181C18.0223 19.5134 18.0249 19.507 18.0249 19.5004V5.97539H5.9749ZM9.7499 9.7254C9.74327 9.7254 9.73691 9.72803 9.73222 9.73272C9.72754 9.73741 9.7249 9.74376 9.7249 9.75039V15.7504C9.7249 15.757 9.72754 15.7634 9.73222 15.7681C9.73691 15.7728 9.74327 15.7754 9.7499 15.7754C9.75653 15.7754 9.76289 15.7728 9.76758 15.7681C9.77227 15.7634 9.7749 15.757 9.7749 15.7504V9.75039C9.7749 9.74376 9.77227 9.73741 9.76758 9.73272C9.76289 9.72803 9.75653 9.7254 9.7499 9.7254ZM9.23725 9.23774C9.37321 9.10178 9.55762 9.02539 9.7499 9.02539C9.94218 9.02539 10.1266 9.10178 10.2626 9.23774C10.3985 9.37371 10.4749 9.55811 10.4749 9.75039V15.7504C10.4749 15.9427 10.3985 16.1271 10.2626 16.263C10.1266 16.399 9.94218 16.4754 9.7499 16.4754C9.55762 16.4754 9.37321 16.399 9.23725 16.263C9.10128 16.1271 9.0249 15.9427 9.0249 15.7504V9.75039C9.0249 9.55811 9.10128 9.37371 9.23725 9.23774ZM14.2499 9.7254C14.2433 9.7254 14.2369 9.72803 14.2322 9.73272C14.2275 9.73741 14.2249 9.74376 14.2249 9.75039V15.7504C14.2249 15.757 14.2275 15.7634 14.2322 15.7681C14.2369 15.7728 14.2433 15.7754 14.2499 15.7754C14.2565 15.7754 14.2629 15.7728 14.2676 15.7681C14.2723 15.7634 14.2749 15.757 14.2749 15.7504V9.75039C14.2749 9.74376 14.2723 9.73741 14.2676 9.73272C14.2629 9.72803 14.2565 9.7254 14.2499 9.7254ZM13.7373 9.23774C13.8732 9.10178 14.0576 9.02539 14.2499 9.02539C14.4422 9.02539 14.6266 9.10178 14.7626 9.23774C14.8985 9.37371 14.9749 9.55811 14.9749 9.75039V15.7504C14.9749 15.9427 14.8985 16.1271 14.7626 16.263C14.6266 16.399 14.4422 16.4754 14.2499 16.4754C14.0576 16.4754 13.8732 16.399 13.7373 16.263C13.6013 16.1271 13.5249 15.9427 13.5249 15.7504V9.75039C13.5249 9.55811 13.6013 9.37371 13.7373 9.23774Z" fill="#FC5B5B"/>
</svg>
