<svg width="24" height="24" viewBox="0 0 24 24" fill="none" xmlns="http://www.w3.org/2000/svg">
<g clip-path="url(#clip0_302_397)">
<path d="M17.498 4.79487L17.647 4.64587C17.7591 4.53378 17.8923 4.44489 18.0388 4.38425C18.1853 4.32362 18.3423 4.29243 18.5009 4.29248C18.6594 4.29253 18.8164 4.3238 18.9629 4.38452C19.1093 4.44524 19.2424 4.53422 19.3545 4.64637C19.4666 4.75851 19.5555 4.89164 19.6161 5.03815C19.6767 5.18465 19.7079 5.34166 19.7079 5.50022C19.7078 5.65878 19.6766 5.81577 19.6158 5.96224C19.5551 6.10871 19.4661 6.24178 19.354 6.35387L19.205 6.50187C19.4599 6.78773 19.5958 7.16026 19.5848 7.54309C19.5738 7.92593 19.4168 8.29007 19.146 8.56087L8.854 18.8539C8.78966 18.9179 8.70911 18.9632 8.621 18.9849L4.621 19.9849C4.53729 20.0057 4.44961 20.0045 4.36649 19.9815C4.28337 19.9584 4.20763 19.9142 4.14663 19.8532C4.08563 19.7922 4.04145 19.7165 4.01839 19.6334C3.99532 19.5503 3.99416 19.4626 4.015 19.3789L5.015 15.3789C5.03688 15.2911 5.08215 15.2109 5.146 15.1469L14.788 5.50487C14.6916 5.437 14.5742 5.40539 14.4568 5.41564C14.3393 5.42589 14.2292 5.47732 14.146 5.56087L10.854 8.85387C10.8075 8.90035 10.7523 8.93723 10.6916 8.96239C10.6308 8.98755 10.5657 9.0005 10.5 9.0005C10.4343 9.0005 10.3692 8.98755 10.3084 8.96239C10.2477 8.93723 10.1925 8.90035 10.146 8.85387C10.0995 8.80738 10.0626 8.75219 10.0375 8.69145C10.0123 8.63071 9.99937 8.56561 9.99937 8.49987C9.99937 8.43412 10.0123 8.36902 10.0375 8.30828C10.0626 8.24754 10.0995 8.19235 10.146 8.14587L13.44 4.85387C13.711 4.58288 14.0754 4.42589 14.4585 4.4151C14.8415 4.40432 15.2142 4.54056 15.5 4.79587C15.7748 4.5503 16.1303 4.41448 16.4988 4.41429C16.8673 4.41411 17.223 4.54958 17.498 4.79487ZM16.854 5.56087C16.7602 5.46713 16.6331 5.41447 16.5005 5.41447C16.3679 5.41447 16.2408 5.46713 16.147 5.56087L5.95 15.7559L5.186 18.8129L8.243 18.0489L18.44 7.85387C18.4866 7.80742 18.5235 7.75224 18.5487 7.6915C18.5739 7.63075 18.5869 7.56563 18.5869 7.49987C18.5869 7.4341 18.5739 7.36898 18.5487 7.30823C18.5235 7.24749 18.4866 7.19231 18.44 7.14587L16.855 5.56087H16.854Z" fill="#2A2C2A"/>
</g>
<defs>
<clipPath id="clip0_302_397">
<rect width="16" height="16" fill="white" transform="translate(4 4)"/>
</clipPath>
</defs>
</svg>
