<svg width="24" height="24" viewBox="0 0 24 24" fill="none" xmlns="http://www.w3.org/2000/svg">
<path d="M16.3125 11.25H12.75V7.6875C12.75 7.58437 12.6656 7.5 12.5625 7.5H11.4375C11.3344 7.5 11.25 7.58437 11.25 7.6875V11.25H7.6875C7.58437 11.25 7.5 11.3344 7.5 11.4375V12.5625C7.5 12.6656 7.58437 12.75 7.6875 12.75H11.25V16.3125C11.25 16.4156 11.3344 16.5 11.4375 16.5H12.5625C12.6656 16.5 12.75 16.4156 12.75 16.3125V12.75H16.3125C16.4156 12.75 16.5 12.6656 16.5 12.5625V11.4375C16.5 11.3344 16.4156 11.25 16.3125 11.25Z" fill="#2A2C2A"/>
<path fill-rule="evenodd" clip-rule="evenodd" d="M22 12C22 17.5228 17.5228 22 12 22C6.47715 22 2 17.5228 2 12C2 6.47715 6.47715 2 12 2C17.5228 2 22 6.47715 22 12ZM12 21C16.9706 21 21 16.9706 21 12C21 7.02944 16.9706 3 12 3C7.02944 3 3 7.02944 3 12C3 16.9706 7.02944 21 12 21Z" fill="#2A2C2A"/>
</svg>
