<svg width="24" height="24" viewBox="0 0 24 24" fill="none" xmlns="http://www.w3.org/2000/svg">
<g clip-path="url(#clip0_302_313)">
<path fill-rule="evenodd" clip-rule="evenodd" d="M2.54999 12.9998C2.54999 12.199 3.19918 11.5498 3.99999 11.5498H6.99999C7.8008 11.5498 8.44999 12.199 8.44999 12.9998V19.9998C8.44999 20.8006 7.8008 21.4498 6.99999 21.4498H3.99999C3.19917 21.4498 2.54999 20.8006 2.54999 19.9998V12.9998ZM3.99999 12.4498C3.69623 12.4498 3.44999 12.696 3.44999 12.9998V19.9998C3.44999 20.3036 3.69623 20.5498 3.99999 20.5498H6.99999C7.30374 20.5498 7.54999 20.3036 7.54999 19.9998V12.9998C7.54999 12.696 7.30374 12.4498 6.99999 12.4498H3.99999Z" fill="#2A2C2A"/>
<path fill-rule="evenodd" clip-rule="evenodd" d="M10.55 12.9998C10.55 12.199 11.1992 11.5498 12 11.5498H20C20.8008 11.5498 21.45 12.199 21.45 12.9998V19.9998C21.45 20.8006 20.8008 21.4498 20 21.4498H12C11.1992 21.4498 10.55 20.8006 10.55 19.9998V12.9998ZM12 12.4498C11.6962 12.4498 11.45 12.696 11.45 12.9998V19.9998C11.45 20.3036 11.6962 20.5498 12 20.5498H20C20.3037 20.5498 20.55 20.3036 20.55 19.9998V12.9998C20.55 12.696 20.3037 12.4498 20 12.4498H12Z" fill="#2A2C2A"/>
<path fill-rule="evenodd" clip-rule="evenodd" d="M2.54999 4.9998C2.54999 4.19899 3.19918 3.5498 3.99999 3.5498H20C20.8008 3.5498 21.45 4.19899 21.45 4.9998V7.9998C21.45 8.80062 20.8008 9.4498 20 9.4498H3.99999C3.19918 9.4498 2.54999 8.80062 2.54999 7.9998V4.9998ZM3.99999 4.4498C3.69623 4.4498 3.44999 4.69605 3.44999 4.9998V7.9998C3.44999 8.30356 3.69623 8.5498 3.99999 8.5498H20C20.3037 8.5498 20.55 8.30356 20.55 7.9998V4.9998C20.55 4.69605 20.3037 4.4498 20 4.4498H3.99999Z" fill="#2A2C2A"/>
</g>
<defs>
<clipPath id="clip0_302_313">
<rect width="24" height="24" fill="white"/>
</clipPath>
</defs>
</svg>
