<svg width="19" height="18" viewBox="0 0 19 18" fill="none" xmlns="http://www.w3.org/2000/svg">
<path fill-rule="evenodd" clip-rule="evenodd" d="M0 9.45C0 8.64919 0.649187 8 1.45 8H4.45C5.25081 8 5.9 8.64919 5.9 9.45V16.45C5.9 17.2508 5.25081 17.9 4.45 17.9H1.45C0.649187 17.9 0 17.2508 0 16.45V9.45ZM1.45 8.9C1.14624 8.9 0.9 9.14624 0.9 9.45V16.45C0.9 16.7538 1.14624 17 1.45 17H4.45C4.75376 17 5 16.7538 5 16.45V9.45C5 9.14624 4.75376 8.9 4.45 8.9H1.45Z" fill="#2A2C2A"/>
<path fill-rule="evenodd" clip-rule="evenodd" d="M8 9.45C8 8.64919 8.64919 8 9.45 8H17.45C18.2508 8 18.9 8.64919 18.9 9.45V16.45C18.9 17.2508 18.2508 17.9 17.45 17.9H9.45C8.64919 17.9 8 17.2508 8 16.45V9.45ZM9.45 8.9C9.14624 8.9 8.9 9.14624 8.9 9.45V16.45C8.9 16.7538 9.14624 17 9.45 17H17.45C17.7538 17 18 16.7538 18 16.45V9.45C18 9.14624 17.7538 8.9 17.45 8.9H9.45Z" fill="#2A2C2A"/>
<path fill-rule="evenodd" clip-rule="evenodd" d="M0 1.45C0 0.649187 0.649187 0 1.45 0H17.45C18.2508 0 18.9 0.649187 18.9 1.45V4.45C18.9 5.25081 18.2508 5.9 17.45 5.9H1.45C0.649188 5.9 0 5.25081 0 4.45V1.45ZM1.45 0.9C1.14624 0.9 0.9 1.14624 0.9 1.45V4.45C0.9 4.75376 1.14624 5 1.45 5H17.45C17.7538 5 18 4.75376 18 4.45V1.45C18 1.14624 17.7538 0.9 17.45 0.9H1.45Z" fill="#2A2C2A"/>
</svg>
