<svg width="20" height="16" viewBox="0 0 20 16" fill="none" xmlns="http://www.w3.org/2000/svg">
<path d="M14.2 11.5998C14.0409 11.5998 13.8883 11.663 13.7758 11.7755C13.6632 11.8881 13.6 12.0407 13.6 12.1998C13.6 12.3589 13.6632 12.5115 13.7758 12.6241C13.8883 12.7366 14.0409 12.7998 14.2 12.7998H16.6C16.7592 12.7998 16.9118 12.7366 17.0243 12.6241C17.1368 12.5115 17.2 12.3589 17.2 12.1998C17.2 12.0407 17.1368 11.8881 17.0243 11.7755C16.9118 11.663 16.7592 11.5998 16.6 11.5998H14.2ZM0.400024 4.0998C0.400024 3.22459 0.747702 2.38522 1.36657 1.76635C1.98544 1.14748 2.82481 0.799805 3.70002 0.799805H16.3C17.1752 0.799805 18.0146 1.14748 18.6335 1.76635C19.2523 2.38522 19.6 3.22459 19.6 4.0998V11.8998C19.6 12.775 19.2523 13.6144 18.6335 14.2333C18.0146 14.8521 17.1752 15.1998 16.3 15.1998H3.70002C2.82481 15.1998 1.98544 14.8521 1.36657 14.2333C0.747702 13.6144 0.400024 12.775 0.400024 11.8998V4.0998ZM3.70002 1.9998C3.14307 1.9998 2.60893 2.22105 2.2151 2.61488C1.82127 3.00871 1.60002 3.54285 1.60002 4.0998V5.5998H18.4V4.0998C18.4 3.54285 18.1788 3.00871 17.7849 2.61488C17.3911 2.22105 16.857 1.9998 16.3 1.9998H3.70002ZM18.4 6.7998H1.60002V11.8998C1.60002 13.059 2.54082 13.9998 3.70002 13.9998H16.3C16.857 13.9998 17.3911 13.7786 17.7849 13.3847C18.1788 12.9909 18.4 12.4568 18.4 11.8998V6.7998Z" fill="#575757"/>
</svg>
