<svg width="24" height="24" viewBox="0 0 24 24" fill="none" xmlns="http://www.w3.org/2000/svg">
<path fill-rule="evenodd" clip-rule="evenodd" d="M6.6 5.5C4.88204 5.5 3.5 6.87386 3.5 8.55556V17.4444C3.5 19.1261 4.88204 20.5 6.6 20.5H17.4C19.118 20.5 20.5 19.1261 20.5 17.4444V8.55556C20.5 6.87386 19.118 5.5 17.4 5.5H6.6ZM2.5 8.55556C2.5 6.3099 4.34151 4.5 6.6 4.5H17.4C19.6585 4.5 21.5 6.3099 21.5 8.55556V17.4444C21.5 19.6901 19.6585 21.5 17.4 21.5H6.6C4.34151 21.5 2.5 19.6901 2.5 17.4444V8.55556Z" fill="#2A2C2A"/>
<path fill-rule="evenodd" clip-rule="evenodd" d="M8.4 3.5C8.67614 3.5 8.9 3.72386 8.9 4V7C8.9 7.27614 8.67614 7.5 8.4 7.5C8.12386 7.5 7.9 7.27614 7.9 7V4C7.9 3.72386 8.12386 3.5 8.4 3.5ZM15.6 3.5C15.8761 3.5 16.1 3.72386 16.1 4V7C16.1 7.27614 15.8761 7.5 15.6 7.5C15.3239 7.5 15.1 7.27614 15.1 7V4C15.1 3.72386 15.3239 3.5 15.6 3.5ZM2.5 10C2.5 9.72386 2.72386 9.5 3 9.5H21C21.2761 9.5 21.5 9.72386 21.5 10C21.5 10.2761 21.2761 10.5 21 10.5H3C2.72386 10.5 2.5 10.2761 2.5 10Z" fill="#2A2C2A"/>
<path fill-rule="evenodd" clip-rule="evenodd" d="M4.90002 12.3499C4.90002 12.1014 5.1015 11.8999 5.35002 11.8999H6.65002C6.89855 11.8999 7.10002 12.1014 7.10002 12.3499V13.6499C7.10002 13.8984 6.89855 14.0999 6.65002 14.0999H5.35002C5.1015 14.0999 4.90002 13.8984 4.90002 13.6499V12.3499ZM5.35002 12.0999C5.21195 12.0999 5.10002 12.2118 5.10002 12.3499V13.6499C5.10002 13.788 5.21195 13.8999 5.35002 13.8999H6.65002C6.7881 13.8999 6.90002 13.788 6.90002 13.6499V12.3499C6.90002 12.2118 6.7881 12.0999 6.65002 12.0999H5.35002Z" fill="#2A2C2A"/>
<path fill-rule="evenodd" clip-rule="evenodd" d="M8.90002 12.3499C8.90002 12.1014 9.1015 11.8999 9.35002 11.8999H10.65C10.8986 11.8999 11.1 12.1014 11.1 12.3499V13.6499C11.1 13.8984 10.8986 14.0999 10.65 14.0999H9.35002C9.1015 14.0999 8.90002 13.8984 8.90002 13.6499V12.3499ZM9.35002 12.0999C9.21195 12.0999 9.10002 12.2118 9.10002 12.3499V13.6499C9.10002 13.788 9.21195 13.8999 9.35002 13.8999H10.65C10.7881 13.8999 10.9 13.788 10.9 13.6499V12.3499C10.9 12.2118 10.7881 12.0999 10.65 12.0999H9.35002Z" fill="#2A2C2A"/>
<path fill-rule="evenodd" clip-rule="evenodd" d="M12.9 12.3499C12.9 12.1014 13.1015 11.8999 13.35 11.8999H14.65C14.8986 11.8999 15.1 12.1014 15.1 12.3499V13.6499C15.1 13.8984 14.8986 14.0999 14.65 14.0999H13.35C13.1015 14.0999 12.9 13.8984 12.9 13.6499V12.3499ZM13.35 12.0999C13.212 12.0999 13.1 12.2118 13.1 12.3499V13.6499C13.1 13.788 13.212 13.8999 13.35 13.8999H14.65C14.7881 13.8999 14.9 13.788 14.9 13.6499V12.3499C14.9 12.2118 14.7881 12.0999 14.65 12.0999H13.35Z" fill="#2A2C2A"/>
<path fill-rule="evenodd" clip-rule="evenodd" d="M16.9 12.3499C16.9 12.1014 17.1015 11.8999 17.35 11.8999H18.65C18.8986 11.8999 19.1 12.1014 19.1 12.3499V13.6499C19.1 13.8984 18.8986 14.0999 18.65 14.0999H17.35C17.1015 14.0999 16.9 13.8984 16.9 13.6499V12.3499ZM17.35 12.0999C17.212 12.0999 17.1 12.2118 17.1 12.3499V13.6499C17.1 13.788 17.212 13.8999 17.35 13.8999H18.65C18.7881 13.8999 18.9 13.788 18.9 13.6499V12.3499C18.9 12.2118 18.7881 12.0999 18.65 12.0999H17.35Z" fill="#2A2C2A"/>
<path fill-rule="evenodd" clip-rule="evenodd" d="M16.9 16.3499C16.9 16.1014 17.1015 15.8999 17.35 15.8999H18.65C18.8986 15.8999 19.1 16.1014 19.1 16.3499V17.6499C19.1 17.8984 18.8986 18.0999 18.65 18.0999H17.35C17.1015 18.0999 16.9 17.8984 16.9 17.6499V16.3499ZM17.35 16.0999C17.212 16.0999 17.1 16.2118 17.1 16.3499V17.6499C17.1 17.788 17.212 17.8999 17.35 17.8999H18.65C18.7881 17.8999 18.9 17.788 18.9 17.6499V16.3499C18.9 16.2118 18.7881 16.0999 18.65 16.0999H17.35Z" fill="#2A2C2A"/>
<path fill-rule="evenodd" clip-rule="evenodd" d="M12.9 16.3499C12.9 16.1014 13.1015 15.8999 13.35 15.8999H14.65C14.8986 15.8999 15.1 16.1014 15.1 16.3499V17.6499C15.1 17.8984 14.8986 18.0999 14.65 18.0999H13.35C13.1015 18.0999 12.9 17.8984 12.9 17.6499V16.3499ZM13.35 16.0999C13.212 16.0999 13.1 16.2118 13.1 16.3499V17.6499C13.1 17.788 13.212 17.8999 13.35 17.8999H14.65C14.7881 17.8999 14.9 17.788 14.9 17.6499V16.3499C14.9 16.2118 14.7881 16.0999 14.65 16.0999H13.35Z" fill="#2A2C2A"/>
<path fill-rule="evenodd" clip-rule="evenodd" d="M8.90002 16.3499C8.90002 16.1014 9.1015 15.8999 9.35002 15.8999H10.65C10.8986 15.8999 11.1 16.1014 11.1 16.3499V17.6499C11.1 17.8984 10.8986 18.0999 10.65 18.0999H9.35002C9.1015 18.0999 8.90002 17.8984 8.90002 17.6499V16.3499ZM9.35002 16.0999C9.21195 16.0999 9.10002 16.2118 9.10002 16.3499V17.6499C9.10002 17.788 9.21195 17.8999 9.35002 17.8999H10.65C10.7881 17.8999 10.9 17.788 10.9 17.6499V16.3499C10.9 16.2118 10.7881 16.0999 10.65 16.0999H9.35002Z" fill="#2A2C2A"/>
<path fill-rule="evenodd" clip-rule="evenodd" d="M4.90002 16.3499C4.90002 16.1014 5.1015 15.8999 5.35002 15.8999H6.65002C6.89855 15.8999 7.10002 16.1014 7.10002 16.3499V17.6499C7.10002 17.8984 6.89855 18.0999 6.65002 18.0999H5.35002C5.1015 18.0999 4.90002 17.8984 4.90002 17.6499V16.3499ZM5.35002 16.0999C5.21195 16.0999 5.10002 16.2118 5.10002 16.3499V17.6499C5.10002 17.788 5.21195 17.8999 5.35002 17.8999H6.65002C6.7881 17.8999 6.90002 17.788 6.90002 17.6499V16.3499C6.90002 16.2118 6.7881 16.0999 6.65002 16.0999H5.35002Z" fill="#2A2C2A"/>
</svg>
