<svg width="24" height="24" viewBox="0 0 24 24" fill="none" xmlns="http://www.w3.org/2000/svg">
<path d="M12 21H6.6C4.61177 21 3 19.4081 3 17.4444V8.55556C3 6.59188 4.61177 5 6.6 5H17.4C19.3882 5 21 6.59188 21 8.55556V13" stroke="#2A2C2A" stroke-linecap="round" stroke-linejoin="round"/>
<path d="M8.40002 4V7M15.6 4V7" stroke="#2A2C2A" stroke-linecap="round" stroke-linejoin="round"/>
<g clip-path="url(#clip0_302_737)">
<path d="M19.7969 17.6875H18.3125V16.2031C18.3125 16.1602 18.2773 16.125 18.2344 16.125H17.7656C17.7227 16.125 17.6875 16.1602 17.6875 16.2031V17.6875H16.2031C16.1602 17.6875 16.125 17.7227 16.125 17.7656V18.2344C16.125 18.2773 16.1602 18.3125 16.2031 18.3125H17.6875V19.7969C17.6875 19.8398 17.7227 19.875 17.7656 19.875H18.2344C18.2773 19.875 18.3125 19.8398 18.3125 19.7969V18.3125H19.7969C19.8398 18.3125 19.875 18.2773 19.875 18.2344V17.7656C19.875 17.7227 19.8398 17.6875 19.7969 17.6875Z" fill="#2A2C2A"/>
<path fill-rule="evenodd" clip-rule="evenodd" d="M22.1666 18.0002C22.1666 20.3013 20.3012 22.1668 18 22.1668C15.6988 22.1668 13.8333 20.3013 13.8333 18.0002C13.8333 15.699 15.6988 13.8335 18 13.8335C20.3012 13.8335 22.1666 15.699 22.1666 18.0002ZM18 21.7502C20.071 21.7502 21.75 20.0712 21.75 18.0002C21.75 15.9291 20.071 14.2502 18 14.2502C15.9289 14.2502 14.25 15.9291 14.25 18.0002C14.25 20.0712 15.9289 21.7502 18 21.7502Z" fill="#2A2C2A" stroke="#2A2C2A" stroke-width="0.3"/>
</g>
<defs>
<clipPath id="clip0_302_737">
<rect width="10" height="10" fill="white" transform="translate(13 13)"/>
</clipPath>
</defs>
</svg>
