<svg width="24" height="24" viewBox="0 0 24 24" fill="none" xmlns="http://www.w3.org/2000/svg">
<g clip-path="url(#clip0_302_281)">
<path d="M19.5265 12.5596C19.5675 12.248 19.5894 11.9343 19.5923 11.6201C19.5894 11.3059 19.5675 10.9922 19.5265 10.6807L21.5605 9.08827C21.6523 9.01811 21.7151 8.91655 21.7368 8.80303C21.7584 8.6895 21.7375 8.57197 21.6779 8.47292L19.752 5.13313C19.6962 5.03295 19.6057 4.95664 19.4976 4.91857C19.3894 4.8805 19.2711 4.8833 19.1649 4.92645L16.7645 5.89409C16.2651 5.5129 15.7189 5.19718 15.1393 4.95463L14.7776 2.40399C14.7616 2.29113 14.7052 2.18791 14.6187 2.11359C14.5323 2.03926 14.4218 1.9989 14.3078 2.00002H10.4466C10.3327 1.9989 10.2222 2.03926 10.1357 2.11359C10.0493 2.18791 9.99287 2.29113 9.97691 2.40399L9.61522 4.95463C9.03486 5.19567 8.48848 5.5115 7.98995 5.89409L5.58023 4.92645C5.474 4.8833 5.35565 4.8805 5.2475 4.91857C5.13934 4.95664 5.04885 5.03295 4.99307 5.13313L3.06717 8.47292C3.00761 8.57197 2.98666 8.6895 3.00833 8.80303C3.02999 8.91655 3.09275 9.01811 3.1846 9.08827L5.21384 10.6807C5.17308 10.9922 5.15112 11.3059 5.14808 11.6201C5.15096 11.9343 5.17292 12.248 5.21384 12.5596L3.1846 14.152C3.09275 14.2221 3.02999 14.3237 3.00833 14.4372C2.98666 14.5507 3.00761 14.6683 3.06717 14.7673L4.99307 18.1071C5.04885 18.2073 5.13934 18.2836 5.2475 18.3217C5.35565 18.3597 5.474 18.3569 5.58023 18.3138L7.98056 17.3461C8.48002 17.7273 9.02622 18.0431 9.60583 18.2856L9.96752 20.8362C9.98347 20.9491 10.0399 21.0523 10.1263 21.1266C10.2128 21.201 10.3233 21.2413 10.4373 21.2402H14.289C14.403 21.2413 14.5135 21.201 14.6 21.1266C14.6864 21.0523 14.7428 20.9491 14.7588 20.8362L15.1205 18.2856C15.7008 18.0446 16.2472 17.7287 16.7457 17.3461L19.1461 18.3138C19.2523 18.3569 19.3706 18.3597 19.4788 18.3217C19.587 18.2836 19.6774 18.2073 19.7332 18.1071L21.6591 14.7673C21.7187 14.6683 21.7396 14.5507 21.718 14.4372C21.6963 14.3237 21.6335 14.2221 21.5417 14.152L19.5265 12.5596ZM12.3725 14.9928C11.7053 14.9937 11.0528 14.7967 10.4975 14.4267C9.94226 14.0566 9.50925 13.5302 9.25326 12.914C8.99727 12.2978 8.92981 11.6196 9.05941 10.965C9.18901 10.3105 9.50986 9.70909 9.98135 9.23694C10.4528 8.7648 11.0538 8.44312 11.7081 8.3126C12.3625 8.18208 13.0409 8.2486 13.6574 8.50373C14.274 8.75886 14.801 9.19114 15.1718 9.74587C15.5426 10.3006 15.7405 10.9529 15.7405 11.6201C15.7411 12.0628 15.6545 12.5013 15.4855 12.9104C15.3165 13.3196 15.0685 13.6914 14.7557 14.0047C14.4429 14.3179 14.0714 14.5664 13.6625 14.736C13.2536 14.9055 12.8152 14.9928 12.3725 14.9928V14.9928Z" stroke="#2A2C2A" stroke-width="0.845516" stroke-linecap="round" stroke-linejoin="round"/>
</g>
<defs>
<clipPath id="clip0_302_281">
<rect width="24" height="24" fill="white"/>
</clipPath>
</defs>
</svg>
