<svg width="16" height="15" viewBox="0 0 16 15" fill="none" xmlns="http://www.w3.org/2000/svg">
<path d="M4.36729 5.3265L4.38796 5.3265C4.68863 5.32651 4.94584 5.32652 5.1577 5.30436C5.38362 5.28074 5.5962 5.229 5.79478 5.10125C5.83979 5.07229 5.88313 5.04081 5.92458 5.00695C6.10744 4.85756 6.22233 4.67137 6.31461 4.46382C6.40116 4.26916 6.48063 4.02453 6.57354 3.73855L6.57992 3.71893C6.93833 2.61585 7.19555 1.82663 7.43964 1.30011C7.56119 1.0379 7.66633 0.870998 7.75829 0.770498C7.84388 0.676956 7.8993 0.660429 7.93404 0.656475C7.97787 0.651488 8.02213 0.651488 8.06596 0.656475C8.1007 0.660429 8.15612 0.676956 8.24171 0.770498C8.33367 0.870998 8.43881 1.0379 8.56036 1.30011C8.80445 1.82663 9.06167 2.61585 9.42008 3.71893L9.42646 3.73856C9.51937 4.02453 9.59884 4.26916 9.68539 4.46382C9.77767 4.67137 9.89256 4.85756 10.0754 5.00695C10.1169 5.04081 10.1602 5.07229 10.2052 5.10125C10.4038 5.229 10.6164 5.28074 10.8423 5.30436C11.0542 5.32652 11.3114 5.32651 11.612 5.3265L11.6327 5.3265C12.7926 5.3265 13.6226 5.32725 14.1988 5.39668C14.4858 5.43126 14.677 5.47967 14.801 5.53608C14.9164 5.58858 14.9492 5.63618 14.9637 5.668C14.982 5.70814 14.9957 5.75023 15.0045 5.79345C15.0115 5.82772 15.0129 5.88553 14.9504 5.99584C14.8832 6.11436 14.757 6.26592 14.5451 6.46256C14.1198 6.8574 13.4487 7.34592 12.5104 8.02765L12.4937 8.0398C12.2504 8.21653 12.0423 8.3677 11.8839 8.51016C11.715 8.66206 11.5735 8.82886 11.4879 9.04894C11.4685 9.09883 11.452 9.14977 11.4383 9.20153C11.3782 9.42987 11.3947 9.64803 11.442 9.87019C11.4864 10.0785 11.5659 10.3231 11.6588 10.6091L11.6652 10.6288C12.0236 11.7318 12.2794 12.5215 12.3914 13.091C12.4472 13.3745 12.4603 13.5714 12.4449 13.7067C12.4307 13.8327 12.3956 13.8786 12.3698 13.9023C12.3372 13.9321 12.3014 13.9581 12.2631 13.9798C12.2326 13.997 12.1781 14.0162 12.0538 13.9909C11.9204 13.9636 11.7372 13.8904 11.4848 13.7497C10.9778 13.4672 10.3058 12.9799 9.36748 12.2982L9.35078 12.286C9.10753 12.1093 8.89944 11.9581 8.71501 11.8515C8.51835 11.7378 8.31597 11.6547 8.08022 11.6413C8.02678 11.6383 7.97322 11.6383 7.91978 11.6413C7.68403 11.6547 7.48165 11.7378 7.28499 11.8515C7.10055 11.9581 6.89246 12.1093 6.6492 12.286L6.63252 12.2982C5.69419 12.9799 5.0222 13.4672 4.51525 13.7497C4.26278 13.8904 4.07963 13.9636 3.94615 13.9909C3.82192 14.0162 3.76737 13.997 3.73694 13.9798C3.69855 13.9581 3.66275 13.9321 3.63022 13.9023C3.60444 13.8786 3.56932 13.8327 3.55506 13.7067C3.53973 13.5714 3.55278 13.3745 3.60856 13.091C3.72057 12.5215 3.97637 11.7318 4.33478 10.6288L4.34117 10.6091C4.43409 10.3231 4.51358 10.0785 4.55798 9.87019C4.60532 9.64803 4.62181 9.42987 4.56167 9.20153C4.54804 9.14977 4.53149 9.09883 4.5121 9.04894C4.42653 8.82886 4.28496 8.66206 4.11608 8.51016C3.9577 8.3677 3.7496 8.21652 3.50634 8.0398L3.48963 8.02765C2.5513 7.34592 1.88019 6.8574 1.45486 6.46256C1.24305 6.26592 1.11681 6.11436 1.04964 5.99584C0.987129 5.88553 0.988536 5.82772 0.995512 5.79345C1.00431 5.75023 1.01799 5.70814 1.03627 5.668C1.05077 5.63618 1.08361 5.58858 1.19903 5.53608C1.32303 5.47967 1.51424 5.43126 1.80119 5.39668C2.37737 5.32725 3.20744 5.3265 4.36729 5.3265Z" stroke="#7C807D" stroke-width="0.833333"/>
</svg>
