<svg width="16" height="15" viewBox="0 0 16 15" fill="none" xmlns="http://www.w3.org/2000/svg">
<path d="M4.36729 5.40983L4.39117 5.40983C4.68905 5.40985 4.9501 5.40986 5.16637 5.38724C5.39946 5.36287 5.62628 5.30874 5.83986 5.17133C5.88752 5.14067 5.93341 5.10734 5.9773 5.07148C6.17397 4.91081 6.29555 4.71182 6.39076 4.49767C6.4791 4.29898 6.55975 4.05071 6.65178 3.76742L6.65917 3.74468C7.01833 2.63932 7.27379 1.856 7.51524 1.33516C7.63538 1.07599 7.73626 0.918018 7.81977 0.826754C7.89479 0.744766 7.93288 0.740469 7.94313 0.739312L7.94347 0.739274C7.98103 0.734999 8.01897 0.734999 8.05653 0.739274L8.05687 0.739312C8.06712 0.740469 8.10521 0.744766 8.18023 0.826754C8.26374 0.918018 8.36462 1.07599 8.48476 1.33516C8.72621 1.856 8.98167 2.63932 9.34083 3.74468L9.34822 3.76741C9.44025 4.05071 9.5209 4.29898 9.60924 4.49767C9.70445 4.71182 9.82603 4.91081 10.0227 5.07148C10.0666 5.10734 10.1125 5.14067 10.1601 5.17133C10.3737 5.30874 10.6005 5.36287 10.8336 5.38724C11.0499 5.40986 11.311 5.40985 11.6088 5.40983L11.6327 5.40983C12.795 5.40983 13.6189 5.41073 14.1888 5.47942C14.4724 5.51359 14.6539 5.56071 14.7665 5.61193C14.8676 5.65795 14.8835 5.69285 14.8878 5.70224L14.8879 5.70255C14.9036 5.73695 14.9153 5.77303 14.9228 5.81008L14.9229 5.81041C14.925 5.82052 14.9326 5.85807 14.8779 5.95476C14.8169 6.06238 14.6978 6.20713 14.4884 6.40148C14.0677 6.79207 13.4017 7.27709 12.4614 7.96024L12.4421 7.97425C12.2011 8.14934 11.9899 8.30277 11.8282 8.4482C11.6539 8.60493 11.5023 8.78204 11.4102 9.01874C11.3897 9.07156 11.3722 9.1255 11.3577 9.1803C11.2931 9.42589 11.3117 9.65834 11.3605 9.88756C11.4058 10.1002 11.4865 10.3485 11.5786 10.6318L11.586 10.6545C11.9451 11.7599 12.1989 12.5437 12.3097 13.107C12.3648 13.3873 12.3761 13.5744 12.3621 13.6973C12.3496 13.8078 12.3213 13.8336 12.3137 13.8406L12.3135 13.8408C12.2856 13.8664 12.2549 13.8887 12.222 13.9073L12.2217 13.9074C12.2127 13.9125 12.1794 13.9314 12.0705 13.9092C11.9493 13.8845 11.7748 13.816 11.5253 13.6769C11.0238 13.3975 10.3567 12.9139 9.41646 12.2307L9.39713 12.2167C9.15615 12.0416 8.94497 11.8882 8.75672 11.7793C8.55381 11.662 8.33849 11.5725 8.08494 11.5581C8.02836 11.5549 7.97164 11.5549 7.91506 11.5581C7.66151 11.5725 7.44619 11.662 7.24328 11.7793C7.05502 11.8882 6.84384 12.0416 6.60285 12.2167L6.58354 12.2307C5.64326 12.9139 4.97616 13.3975 4.47468 13.6769C4.22515 13.816 4.05069 13.8845 3.92948 13.9092C3.8206 13.9314 3.78726 13.9125 3.77828 13.9074L3.77799 13.9073C3.74508 13.8887 3.7144 13.8664 3.68652 13.8408L3.68627 13.8406C3.67866 13.8336 3.65036 13.8078 3.63786 13.6973C3.62394 13.5744 3.63519 13.3873 3.69033 13.107C3.80113 12.5437 4.05488 11.7599 4.41403 10.6545L4.42141 10.6318C4.51348 10.3485 4.59416 10.1002 4.63948 9.88756C4.68833 9.65834 4.70694 9.42589 4.64226 9.1803C4.62783 9.1255 4.6103 9.07156 4.58977 9.01874C4.49774 8.78204 4.34605 8.60493 4.1718 8.4482C4.01013 8.30278 3.79892 8.14934 3.55791 7.97426L3.53861 7.96024C2.59833 7.27709 1.9323 6.79207 1.51156 6.40148C1.30221 6.20713 1.18313 6.06238 1.12214 5.95476C1.06735 5.85807 1.07503 5.82052 1.0771 5.81041L1.07717 5.81008C1.08471 5.77303 1.09643 5.73695 1.11211 5.70255L1.11225 5.70224C1.11652 5.69285 1.13238 5.65795 1.23353 5.61193C1.34614 5.56071 1.52755 5.51359 1.81116 5.47942C2.38112 5.41073 3.20504 5.40983 4.36729 5.40983Z" fill="#FFE662" stroke="#FFE662"/>
</svg>
