<svg width="27" height="23" viewBox="0 0 27 23" fill="none" xmlns="http://www.w3.org/2000/svg">
<path d="M1.86381 9.74658C8.86131 6.69858 13.5263 4.68896 15.8588 3.71808C22.5263 0.945709 23.9101 0.464209 24.8138 0.447896C25.0126 0.444709 25.4551 0.493833 25.7438 0.727271C25.9838 0.924146 26.0513 1.1904 26.0851 1.37733C26.1151 1.56408 26.1563 1.98971 26.1226 2.32196C25.7626 6.11696 24.1988 15.3262 23.4038 19.5768C23.0701 21.3753 22.4063 21.9783 21.7651 22.0372C20.3701 22.1655 19.3126 21.1162 17.9626 20.2316C15.8513 18.8467 14.6588 17.985 12.6076 16.6338C10.2376 15.0723 11.7751 14.214 13.1251 12.8115C13.4776 12.4443 19.6201 6.85871 19.7363 6.35208C19.7513 6.28871 19.7663 6.05246 19.6238 5.92796C19.4851 5.80308 19.2788 5.84583 19.1288 5.87958C18.9151 5.92758 15.5438 8.15808 9.00381 12.5707C8.04756 13.2285 7.18131 13.5491 6.40131 13.5322C5.54631 13.5138 3.89631 13.0477 2.67006 12.6495C1.17006 12.1608 -0.0261908 11.9025 0.0788092 11.0726C0.131309 10.6406 0.727559 10.1985 1.86381 9.74658Z" fill="white"/>
</svg>
