<svg width="48" height="48" viewBox="0 0 48 48" fill="none" xmlns="http://www.w3.org/2000/svg">
<g clip-path="url(#clip0_124_2278)">
<path d="M24 0C17.6362 0 11.5275 2.53013 7.03125 7.02938C2.53036 11.5304 0.00124676 17.6347 0 24C0 30.3626 2.53125 36.4714 7.03125 40.9706C11.5275 45.4699 17.6362 48 24 48C30.3638 48 36.4725 45.4699 40.9688 40.9706C45.4688 36.4714 48 30.3626 48 24C48 17.6374 45.4688 11.5286 40.9688 7.02938C36.4725 2.53013 30.3638 0 24 0Z" fill="#38A8FF"/>
<path d="M10.8638 23.7466C17.8613 20.6986 22.5263 18.689 24.8588 17.7181C31.5263 14.9457 32.9101 14.4642 33.8138 14.4479C34.0126 14.4447 34.4551 14.4938 34.7438 14.7273C34.9838 14.9241 35.0513 15.1904 35.0851 15.3773C35.1151 15.5641 35.1563 15.9897 35.1226 16.322C34.7626 20.117 33.1988 29.3262 32.4038 33.5768C32.0701 35.3753 31.4063 35.9783 30.7651 36.0372C29.3701 36.1655 28.3126 35.1162 26.9626 34.2316C24.8513 32.8467 23.6588 31.985 21.6076 30.6338C19.2376 29.0723 20.7751 28.214 22.1251 26.8115C22.4776 26.4443 28.6201 20.8587 28.7363 20.3521C28.7513 20.2887 28.7663 20.0525 28.6238 19.928C28.4851 19.8031 28.2788 19.8458 28.1288 19.8796C27.9151 19.9276 24.5438 22.1581 18.0038 26.5707C17.0476 27.2285 16.1813 27.5491 15.4013 27.5322C14.5463 27.5138 12.8963 27.0477 11.6701 26.6495C10.1701 26.1608 8.97381 25.9025 9.07881 25.0726C9.13131 24.6406 9.72756 24.1985 10.8638 23.7466Z" fill="white"/>
</g>
<defs>
<clipPath id="clip0_124_2278">
<rect width="48" height="48" fill="white"/>
</clipPath>
</defs>
</svg>
