<svg width="48" height="48" viewBox="0 0 48 48" fill="none" xmlns="http://www.w3.org/2000/svg">
<g clip-path="url(#clip0_124_2284)">
<path d="M23.96 -0.0400391C10.705 -0.0400391 -0.0400391 10.705 -0.0400391 23.96C-0.0400391 37.215 10.705 47.96 23.96 47.96C37.215 47.96 47.96 37.215 47.96 23.96C47.96 10.705 37.215 -0.0400391 23.96 -0.0400391ZM33.19 27.0375C33.19 27.0375 35.3125 29.1325 35.835 30.105C35.85 30.125 35.8575 30.145 35.8625 30.155C36.075 30.5125 36.125 30.79 36.02 30.9975C35.845 31.3425 35.245 31.5125 35.04 31.5275H31.29C31.03 31.5275 30.485 31.46 29.825 31.005C29.3175 30.65 28.8175 30.0675 28.33 29.5C27.6025 28.655 26.9725 27.925 26.3375 27.925C26.2568 27.9248 26.1766 27.9375 26.1 27.9625C25.62 28.1175 25.005 28.8025 25.005 30.6275C25.005 31.1975 24.555 31.525 24.2375 31.525H22.52C21.935 31.525 18.8875 31.32 16.1875 28.4725C12.8825 24.985 9.90746 17.99 9.88246 17.925C9.69496 17.4725 10.0825 17.23 10.505 17.23H14.2925C14.7975 17.23 14.9625 17.5375 15.0775 17.81C15.2125 18.1275 15.7075 19.39 16.52 20.81C17.8375 23.125 18.645 24.065 19.2925 24.065C19.4139 24.0635 19.5331 24.0326 19.64 23.975C20.485 23.505 20.3275 20.4925 20.29 19.8675C20.29 19.75 20.2875 18.52 19.855 17.93C19.545 17.5025 19.0175 17.34 18.6975 17.28C18.827 17.1012 18.9976 16.9563 19.195 16.8575C19.775 16.5675 20.82 16.525 21.8575 16.525H22.435C23.56 16.54 23.85 16.6125 24.2575 16.715C25.0825 16.9125 25.1 17.445 25.0275 19.2675C25.005 19.785 24.9825 20.37 24.9825 21.06C24.9825 21.21 24.975 21.37 24.975 21.54C24.95 22.4675 24.92 23.52 25.575 23.9525C25.6604 24.006 25.7591 24.0346 25.86 24.035C26.0875 24.035 26.7725 24.035 28.6275 20.8525C29.1996 19.8281 29.6967 18.7637 30.115 17.6675C30.1525 17.6025 30.2625 17.4025 30.3925 17.325C30.4884 17.2761 30.5948 17.2512 30.7025 17.2525H35.155C35.64 17.2525 35.9725 17.325 36.035 17.5125C36.145 17.81 36.015 18.7175 33.9825 21.47L33.075 22.6675C31.2325 25.0825 31.2325 25.205 33.19 27.0375V27.0375Z" fill="#0077FE"/>
</g>
<defs>
<clipPath id="clip0_124_2284">
<rect width="48" height="48" fill="white"/>
</clipPath>
</defs>
</svg>
