<svg width="428" height="255" viewBox="0 0 428 255" fill="none" xmlns="http://www.w3.org/2000/svg">
<path d="M231.131 254.783C86.9084 261.897 16.9975 92.5932 0.0699172 7.05209C-2.10498 -3.11122 47.0439 0.700025 66.0874 0.700025C81.3223 0.700025 86.8237 18.4858 87.6701 27.3787C100.366 78.1952 142.262 129.012 152.418 139.175C157.585 144.345 161.999 143.967 165.072 142.027C168.231 140.032 168.922 135.96 168.922 132.223V46.4349C168.922 24.8379 152.418 19.7562 149.879 9.59292C147.848 1.46227 156.65 0.276554 161.305 0.700025H238.749C247.89 0.700025 251.021 6.62862 251.444 9.59292C251.021 41.3532 250.429 106.652 251.444 113.767C252.714 122.66 253.983 122.66 265.41 122.66C276.836 122.66 324.78 38.887 333.966 21.0266C341.514 6.35207 347.085 1.1235 350.471 0.700025H413.949C425.121 0.700025 421.566 18.4858 413.949 31.1899L356.47 122.259C354.21 125.84 353.01 129.989 353.01 134.225C353.01 139.858 355.123 145.272 358.926 149.428C375.891 167.971 404.632 199.934 419.027 217.941C429.897 231.536 429.255 240.964 425.612 246.604C422.467 251.474 416.034 252.242 410.236 252.242H361.439C356.841 252.242 352.417 250.482 349.076 247.324L285.723 187.451C266.425 171.189 250.175 178.558 250.175 187.451V238.969C250.175 243.498 248.933 248.155 244.945 250.302C240.439 252.727 234.5 254.221 231.131 254.783Z" fill="white"/>
</svg>
